# xmcd CD database file generated by OrangeCD 5.2
#
# Track frame offsets:
#	150
#	22359
#	34811
#	50255
#	64034
#	76122
#	97681
#	124659
#	137139
#	155016
#	168283
#	185087
#	202363
#	221968
#	233017
#	246419
#	267047
#	285298
#	302942
#	319669
#	334752
#
# Disc length: 4698 seconds
#
# Revision: 0
# Processed by: cddbd v1.5.1PL2 Copyright (c) Steve Scherf et al.
# Submitted via: OrangeCD 5.2
#
DISCID=34125815
DTITLE=Various Artist - Rhythm and Blues Classics Volume 5
DYEAR=2006
DGENRE=Dance R&B
TTITLE0=Michael Jackson - Billie Jean
TTITLE1=Marvin Gaye - Stuborn Kind Of Fellow
TTITLE2=Four Tops - When She Was My Girl
TTITLE3=Jr. Walker and The All Stars - How Sweet It Is (To Be Loved By You)
TTITLE4=The Temptations - The Way You Do The Things You Do
TTITLE5=The Temptations - Lady Soul
TTITLE6=Michael Jackson - Thriller
TTITLE7=Martha Reeves and The Vandellas - Heatwave
TTITLE8=The Pointer Sisters - I'm So Excited
TTITLE9=The Temptations - I Can't Get Next To You
TTITLE10=Michael Jackson   - The Girl Is Mine   With Paul McCartney
TTITLE11=Roy Orbison - Crying   With K.D. Lang
TTITLE12=Simply Red - The Right Thing
TTITLE13=Aretha Franklin - Respect
TTITLE14=The Temptations - My Girl
TTITLE15=Atlantic Summer - Everybodys Got Summer
TTITLE16=Simply Red - Somethings Got Me Started
TTITLE17=The Temptations - Just My Imagination (Running Away With Me)
TTITLE18=Michael Jackson - Rock With You
TTITLE19=Simply Red - Sunrise
TTITLE20=The Pointer Sisters - Slow Hand
EXTD=
EXTT0=
EXTT1=
EXTT2=
EXTT3=
EXTT4=
EXTT5=
EXTT6=
EXTT7=
EXTT8=
EXTT9=
EXTT10=
EXTT11=
EXTT12=
EXTT13=
EXTT14=
EXTT15=
EXTT16=
EXTT17=
EXTT18=
EXTT19=
EXTT20=
PLAYORDER=
